<svg xmlns="http://www.w3.org/2000/svg" width="390" height="163" viewBox="0 0 390 163" fill="none"><path d="M61.4778 8.19315C59.3667 7.14362 58.3111 7 53.9556 7H14.0333C9.52222 7 8.62222 7.14362 6.51111 8.19315C3.87778 9.50782 2 12.789 2 15.9376C2 19.0861 3.84444 22.5109 6.51111 23.8256C8.62222 24.8751 9.67778 25.0187 14.0333 25.0187H24.0778V82.5881C24.0778 87.5927 24.2222 88.6423 25.4 90.9954C26.9778 93.8789 30.5556 96 34.2667 96C37.9778 96 41.4111 93.9009 42.9889 90.9954C44.0444 88.6423 44.3111 87.4491 44.3111 82.5881V25.0187H53.9667C58.4778 25.0187 59.3778 24.8751 61.4889 23.8256C64.1222 22.5109 66 19.2298 66 15.9376C66 12.6454 64.1556 9.50782 61.4889 8.19315H61.4778Z" fill="#DB3327"></path><path d="M303.539 60.2004L314.369 49.7404C318.059 46.2904 319.139 44.5004 319.139 41.8904C319.139 37.0204 315.319 33.2004 310.579 33.2004C307.839 33.2004 306.049 34.1504 302.599 37.7304L286.529 54.1404V19.0304C286.529 14.7404 286.399 13.7904 285.339 11.7604C284.019 9.15035 280.939 7.36035 277.829 7.36035C274.719 7.36035 271.529 9.15035 270.219 11.7604C269.139 13.7904 269.029 14.8404 269.029 19.0304V83.8604C269.029 88.1504 269.159 89.1003 270.219 91.1303C271.539 93.7403 274.619 95.5303 277.829 95.5303C281.039 95.5303 284.019 93.7403 285.339 91.1303C286.419 89.1003 286.529 88.0504 286.529 83.8604V66.0303L305.209 89.9503C308.529 94.2403 310.449 95.5303 313.669 95.5303C318.539 95.5303 322.599 91.6003 322.599 86.8403C322.599 84.4703 321.759 82.7803 318.779 79.1003L303.549 60.1903V60.2204L303.539 60.2004Z" fill="#DB3327"></path><path d="M374.79 79.9602C372.89 79.0102 371.94 78.8802 368.13 78.8802H351.01L374.56 46.7702C376.11 44.6402 376.93 42.6102 376.93 40.7102C376.93 37.1502 373.85 34.4102 369.79 34.4102H336.12C332.19 34.4102 331.35 34.5402 329.46 35.4902C327.19 36.6802 325.53 39.5502 325.53 42.2602C325.53 44.9702 327.19 47.9802 329.59 49.1602C331.38 50.1102 332.33 50.2402 336.12 50.2402H351.82L327.43 83.5602C326.01 85.4602 325.4 87.0102 325.4 88.8002C325.4 92.7302 328.38 94.7502 334.44 94.7502H368.11C372.04 94.7502 372.88 94.6202 374.77 93.6702C377.04 92.4802 378.7 89.6102 378.7 86.7702C378.7 83.9302 377.04 81.1902 374.77 80.0002L374.8 79.9502L374.79 79.9602Z" fill="#DB3327"></path><path d="M120.58 38.8097C116.65 35.1197 111.07 32.9897 105.22 32.9897C99.3704 32.9897 95.1004 34.4097 89.1504 37.9997V18.8497C89.1504 14.5597 89.0204 13.6097 87.9604 11.5797C86.6404 8.96969 83.5604 7.17969 80.4504 7.17969C77.3404 7.17969 74.1504 8.96969 72.8404 11.5797C71.7604 13.6097 71.6504 14.6597 71.6504 18.8497V83.6797C71.6504 87.9697 71.7804 88.9197 72.8404 90.9497C74.1604 93.5597 77.2404 95.3497 80.4504 95.3497C83.6604 95.3497 86.6404 93.5597 87.9604 90.9497C89.0404 88.9197 89.1504 87.8697 89.1504 83.6797V58.9397C89.1504 52.7497 93.4404 48.1097 99.2704 48.1097C105.1 48.1097 109.02 52.6397 109.02 60.1197V83.6697C109.02 87.9597 109.15 88.9097 110.21 90.9397C111.53 93.5497 114.61 95.3397 117.82 95.3397C121.03 95.3397 124.01 93.5497 125.33 90.9397C126.41 88.9097 126.52 87.8597 126.52 83.6697V55.1097C126.52 47.4997 124.86 42.7297 120.57 38.7997H120.6L120.58 38.8097Z" fill="#DB3327"></path><path d="M251.691 38.2C247.631 34.75 242.521 32.96 236.461 32.96C229.691 32.96 225.501 34.62 220.391 39.39C218.731 35.1 216.231 33.33 212.301 33.33C206.951 33.33 203.371 37.39 203.371 43.55V83.64C203.371 87.93 203.501 88.88 204.561 90.91C205.881 93.52 208.961 95.31 212.171 95.31C215.381 95.31 218.361 93.52 219.681 90.91C220.761 88.88 220.871 87.83 220.871 83.64V58.43C220.871 52.61 225.161 48.08 230.751 48.08C236.701 48.08 240.501 52.37 240.501 59.14V83.64C240.501 87.93 240.631 88.88 241.691 90.91C243.011 93.52 246.091 95.31 249.301 95.31C252.511 95.31 255.491 93.52 256.811 90.91C257.891 88.88 258.001 87.83 258.001 83.64V54.98C258.001 46.66 256.341 42.36 251.701 38.2H251.691Z" fill="#DB3327"></path><path d="M184.6 33.33C180.44 33.33 177.83 35.23 175.91 39.86C170.9 34.75 167.22 32.96 161.03 32.96C154.26 32.96 148.07 35.7 142.83 40.94C136.53 47.13 133.66 54.38 133.66 64.02C133.66 74.61 137.11 82.93 144.01 88.99C149.02 93.39 154.84 95.65 161.26 95.65C167.68 95.65 171.24 93.86 175.67 88.38C177.46 93.02 180.31 95.28 184.47 95.28C189.71 95.28 193.27 91.12 193.27 84.93V42.25C193.27 37.24 189.45 33.32 184.58 33.32H184.61L184.6 33.33ZM170.5 75.95L151.72 80.35H151.67V80.32L147.27 61.54C145.93 55.77 149.04 50.11 154.22 48.9C159.41 47.69 163.97 52.59 165.31 58.36V58.41H165.36C171.13 57.07 177.53 58.96 178.77 64.15C179.98 69.34 176.29 74.63 170.52 75.98L170.49 75.95H170.5Z" fill="#DB3327"></path><path d="M19.8008 118.141V148H17.2988V118.141H19.8008ZM30.0342 118.141V120.314H7.08594V118.141H30.0342Z" fill="#4D4E4F"></path><path d="M43.0566 119.925L32.7207 148H30.0957L41.375 118.141H43.2002L43.0566 119.925ZM52.4492 148L42.0928 119.925L41.9492 118.141H43.7744L55.0742 148H52.4492ZM50.6035 137.459V139.633H34.751V137.459H50.6035Z" fill="#4D4E4F"></path><path d="M76.7715 145.847V148H61.2881V145.847H76.7715ZM62.0264 118.141V148H59.5039V118.141H62.0264Z" fill="#4D4E4F"></path><path d="M100.212 145.847V148H83.416V145.847H100.212ZM84.1748 118.141V148H81.6523V118.141H84.1748ZM98.1201 131.532V133.686H83.416V131.532H98.1201ZM100.109 118.141V120.314H83.416V118.141H100.109Z" fill="#4D4E4F"></path><path d="M127.795 118.141V148H125.252L108.087 122.488V148H105.564V118.141H108.087L125.293 143.652V118.141H127.795Z" fill="#4D4E4F"></path><path d="M144.816 118.141V148H142.314V118.141H144.816ZM155.05 118.141V120.314H132.102V118.141H155.05Z" fill="#4D4E4F"></path><path d="M186.242 140.658C186.242 139.838 186.105 139.106 185.832 138.464C185.559 137.821 185.107 137.247 184.479 136.741C183.863 136.222 183.029 135.743 181.977 135.306C180.938 134.854 179.639 134.41 178.08 133.973C176.59 133.549 175.243 133.084 174.04 132.578C172.837 132.072 171.805 131.491 170.943 130.835C170.096 130.179 169.446 129.413 168.995 128.538C168.544 127.649 168.318 126.617 168.318 125.441C168.318 124.293 168.564 123.247 169.057 122.304C169.549 121.36 170.239 120.547 171.128 119.863C172.03 119.18 173.09 118.653 174.307 118.284C175.537 117.915 176.884 117.73 178.347 117.73C180.438 117.73 182.243 118.127 183.761 118.92C185.292 119.713 186.475 120.786 187.309 122.14C188.156 123.479 188.58 124.983 188.58 126.651H186.058C186.058 125.353 185.75 124.197 185.135 123.186C184.533 122.16 183.658 121.36 182.51 120.786C181.375 120.198 179.987 119.904 178.347 119.904C176.706 119.904 175.325 120.157 174.204 120.663C173.097 121.155 172.256 121.818 171.682 122.652C171.121 123.473 170.841 124.389 170.841 125.4C170.841 126.111 170.978 126.768 171.251 127.369C171.524 127.957 171.969 128.511 172.584 129.03C173.213 129.536 174.04 130.015 175.065 130.466C176.091 130.903 177.355 131.32 178.859 131.717C180.445 132.154 181.854 132.64 183.084 133.173C184.314 133.706 185.354 134.321 186.201 135.019C187.049 135.702 187.691 136.502 188.129 137.418C188.566 138.334 188.785 139.4 188.785 140.617C188.785 141.834 188.525 142.928 188.006 143.898C187.5 144.855 186.782 145.669 185.853 146.339C184.937 147.009 183.85 147.521 182.592 147.877C181.348 148.232 179.987 148.41 178.511 148.41C177.185 148.41 175.865 148.239 174.553 147.897C173.24 147.556 172.037 147.029 170.943 146.318C169.863 145.594 168.995 144.664 168.339 143.529C167.696 142.395 167.375 141.041 167.375 139.469H169.877C169.877 140.727 170.13 141.786 170.636 142.647C171.142 143.509 171.812 144.206 172.646 144.739C173.493 145.272 174.423 145.662 175.435 145.908C176.46 146.141 177.485 146.257 178.511 146.257C180.083 146.257 181.443 146.024 182.592 145.56C183.754 145.095 184.649 144.445 185.278 143.611C185.921 142.764 186.242 141.779 186.242 140.658Z" fill="#4D4E4F"></path><path d="M216.286 131.471V134.67C216.286 136.762 216.013 138.655 215.466 140.351C214.933 142.032 214.153 143.475 213.128 144.678C212.116 145.881 210.899 146.804 209.478 147.446C208.056 148.089 206.456 148.41 204.679 148.41C202.942 148.41 201.356 148.089 199.921 147.446C198.499 146.804 197.275 145.881 196.25 144.678C195.225 143.475 194.432 142.032 193.871 140.351C193.311 138.655 193.03 136.762 193.03 134.67V131.471C193.03 129.379 193.304 127.492 193.851 125.811C194.411 124.115 195.204 122.666 196.229 121.463C197.255 120.26 198.479 119.337 199.9 118.694C201.322 118.052 202.901 117.73 204.638 117.73C206.415 117.73 208.015 118.052 209.437 118.694C210.858 119.337 212.082 120.26 213.107 121.463C214.133 122.666 214.919 124.115 215.466 125.811C216.013 127.492 216.286 129.379 216.286 131.471ZM213.784 134.67V131.43C213.784 129.666 213.579 128.08 213.169 126.672C212.772 125.264 212.178 124.061 211.385 123.062C210.605 122.064 209.648 121.299 208.514 120.766C207.379 120.232 206.087 119.966 204.638 119.966C203.229 119.966 201.965 120.232 200.844 120.766C199.723 121.299 198.766 122.064 197.973 123.062C197.193 124.061 196.592 125.264 196.168 126.672C195.758 128.08 195.553 129.666 195.553 131.43V134.67C195.553 136.447 195.758 138.047 196.168 139.469C196.592 140.877 197.2 142.087 197.993 143.099C198.786 144.097 199.743 144.862 200.864 145.396C201.999 145.929 203.271 146.195 204.679 146.195C206.142 146.195 207.434 145.929 208.555 145.396C209.676 144.862 210.626 144.097 211.405 143.099C212.185 142.087 212.772 140.877 213.169 139.469C213.579 138.047 213.784 136.447 213.784 134.67Z" fill="#4D4E4F"></path><path d="M239.932 145.847V148H224.448V145.847H239.932ZM225.187 118.141V148H222.664V118.141H225.187Z" fill="#4D4E4F"></path><path d="M261.731 118.141H264.254V138.361C264.254 140.604 263.782 142.47 262.839 143.96C261.896 145.45 260.624 146.564 259.024 147.303C257.438 148.041 255.682 148.41 253.754 148.41C251.771 148.41 249.987 148.041 248.401 147.303C246.815 146.564 245.558 145.45 244.628 143.96C243.712 142.47 243.254 140.604 243.254 138.361V118.141H245.756V138.361C245.756 140.098 246.098 141.554 246.781 142.729C247.465 143.905 248.408 144.787 249.611 145.375C250.814 145.963 252.195 146.257 253.754 146.257C255.299 146.257 256.673 145.963 257.876 145.375C259.079 144.787 260.022 143.905 260.706 142.729C261.39 141.554 261.731 140.098 261.731 138.361V118.141Z" fill="#4D4E4F"></path><path d="M281.357 118.141V148H278.855V118.141H281.357ZM291.591 118.141V120.314H268.643V118.141H291.591Z" fill="#4D4E4F"></path><path d="M299.527 118.141V148H297.005V118.141H299.527Z" fill="#4D4E4F"></path><path d="M329.694 131.471V134.67C329.694 136.762 329.421 138.655 328.874 140.351C328.341 142.032 327.562 143.475 326.536 144.678C325.524 145.881 324.308 146.804 322.886 147.446C321.464 148.089 319.864 148.41 318.087 148.41C316.351 148.41 314.765 148.089 313.329 147.446C311.907 146.804 310.684 145.881 309.658 144.678C308.633 143.475 307.84 142.032 307.279 140.351C306.719 138.655 306.438 136.762 306.438 134.67V131.471C306.438 129.379 306.712 127.492 307.259 125.811C307.819 124.115 308.612 122.666 309.638 121.463C310.663 120.26 311.887 119.337 313.309 118.694C314.73 118.052 316.31 117.73 318.046 117.73C319.823 117.73 321.423 118.052 322.845 118.694C324.267 119.337 325.49 120.26 326.516 121.463C327.541 122.666 328.327 124.115 328.874 125.811C329.421 127.492 329.694 129.379 329.694 131.471ZM327.192 134.67V131.43C327.192 129.666 326.987 128.08 326.577 126.672C326.181 125.264 325.586 124.061 324.793 123.062C324.014 122.064 323.057 121.299 321.922 120.766C320.787 120.232 319.495 119.966 318.046 119.966C316.638 119.966 315.373 120.232 314.252 120.766C313.131 121.299 312.174 122.064 311.381 123.062C310.602 124.061 310 125.264 309.576 126.672C309.166 128.08 308.961 129.666 308.961 131.43V134.67C308.961 136.447 309.166 138.047 309.576 139.469C310 140.877 310.608 142.087 311.401 143.099C312.194 144.097 313.151 144.862 314.272 145.396C315.407 145.929 316.679 146.195 318.087 146.195C319.55 146.195 320.842 145.929 321.963 145.396C323.084 144.862 324.034 144.097 324.813 143.099C325.593 142.087 326.181 140.877 326.577 139.469C326.987 138.047 327.192 136.447 327.192 134.67Z" fill="#4D4E4F"></path><path d="M358.303 118.141V148H355.76L338.595 122.488V148H336.072V118.141H338.595L355.801 143.652V118.141H358.303Z" fill="#4D4E4F"></path><path d="M382.83 140.658C382.83 139.838 382.693 139.106 382.42 138.464C382.146 137.821 381.695 137.247 381.066 136.741C380.451 136.222 379.617 135.743 378.564 135.306C377.525 134.854 376.227 134.41 374.668 133.973C373.178 133.549 371.831 133.084 370.628 132.578C369.425 132.072 368.393 131.491 367.531 130.835C366.684 130.179 366.034 129.413 365.583 128.538C365.132 127.649 364.906 126.617 364.906 125.441C364.906 124.293 365.152 123.247 365.645 122.304C366.137 121.36 366.827 120.547 367.716 119.863C368.618 119.18 369.678 118.653 370.895 118.284C372.125 117.915 373.472 117.73 374.935 117.73C377.026 117.73 378.831 118.127 380.349 118.92C381.88 119.713 383.062 120.786 383.896 122.14C384.744 123.479 385.168 124.983 385.168 126.651H382.646C382.646 125.353 382.338 124.197 381.723 123.186C381.121 122.16 380.246 121.36 379.098 120.786C377.963 120.198 376.575 119.904 374.935 119.904C373.294 119.904 371.913 120.157 370.792 120.663C369.685 121.155 368.844 121.818 368.27 122.652C367.709 123.473 367.429 124.389 367.429 125.4C367.429 126.111 367.565 126.768 367.839 127.369C368.112 127.957 368.557 128.511 369.172 129.03C369.801 129.536 370.628 130.015 371.653 130.466C372.679 130.903 373.943 131.32 375.447 131.717C377.033 132.154 378.441 132.64 379.672 133.173C380.902 133.706 381.941 134.321 382.789 135.019C383.637 135.702 384.279 136.502 384.717 137.418C385.154 138.334 385.373 139.4 385.373 140.617C385.373 141.834 385.113 142.928 384.594 143.898C384.088 144.855 383.37 145.669 382.44 146.339C381.524 147.009 380.438 147.521 379.18 147.877C377.936 148.232 376.575 148.41 375.099 148.41C373.772 148.41 372.453 148.239 371.141 147.897C369.828 147.556 368.625 147.029 367.531 146.318C366.451 145.594 365.583 144.664 364.927 143.529C364.284 142.395 363.963 141.041 363.963 139.469H366.465C366.465 140.727 366.718 141.786 367.224 142.647C367.729 143.509 368.399 144.206 369.233 144.739C370.081 145.272 371.011 145.662 372.022 145.908C373.048 146.141 374.073 146.257 375.099 146.257C376.671 146.257 378.031 146.024 379.18 145.56C380.342 145.095 381.237 144.445 381.866 143.611C382.509 142.764 382.83 141.779 382.83 140.658Z" fill="#4D4E4F"></path></svg>